<?xml version="1.0" encoding="utf-8"?>
<!-- Generator: Adobe Illustrator 16.0.0, SVG Export Plug-In . SVG Version: 6.00 Build 0)  -->
<!DOCTYPE svg PUBLIC "-//W3C//DTD SVG 1.1//EN" "http://www.w3.org/Graphics/SVG/1.1/DTD/svg11.dtd">
<svg version="1.1" id="Layer_1" xmlns="http://www.w3.org/2000/svg" xmlns:xlink="http://www.w3.org/1999/xlink" x="0px" y="0px"
	 width="820.875px" height="127.481px" viewBox="0 0 820.875 127.481" enable-background="new 0 0 820.875 127.481"
	 xml:space="preserve" fill="#ccc">
<path d="M11.855,122.154H0V0h32.816c11.511,0,20.789,1.029,29.379,7.044c9.792,6.871,15.806,19.071,15.806,31.784
	c0,18.555-12.37,34.361-29.551,35.563l29.551,47.763h-14.26L27.489,63.224H39c15.807,0,26.116-10.308,26.116-24.223
	c0-8.593-2.921-15.637-8.763-20.962c-6.7-6.013-15.292-6.013-26.802-6.013H11.855V122.154z"/>
<path d="M123.012,84.701c0.172,14.947,10.824,26.974,26.459,26.974c11.683,0,19.242-7.044,24.568-16.664l11.683,6.699
	c-7.731,14.433-20.788,22.679-37.282,22.679c-24.053,0-39.516-18.384-39.516-41.578c0-23.881,13.917-43.64,39.172-43.64
	c25.943,0,39.688,21.477,38.313,45.53H123.012z M171.978,73.019c-1.89-11.684-11.684-21.134-23.71-21.134
	c-11.854,0-22.85,9.45-24.569,21.134H171.978z"/>
<path d="M236.231,51.197h0.343c5.67-7.73,13.058-12.026,23.022-12.026c22.335,0,27.489,16.149,27.489,35.05v47.934h-13.744V76.626
	c0-13.058-1.031-24.741-17.009-24.741c-18.899,0-20.101,17.524-20.101,31.957v38.313h-13.745V41.405h13.745V51.197z"/>
<path d="M323.164,81.951c0-23.71,18.727-42.78,42.437-42.78c23.709,0,42.437,19.07,42.437,42.78s-18.899,42.438-42.437,42.438
	C342.063,124.389,323.164,105.661,323.164,81.951z M336.908,81.78c0,16.494,11.684,29.895,28.692,29.895
	c17.009,0,28.692-13.4,28.692-29.895c0-16.321-11.683-29.896-28.692-29.896C348.591,51.885,336.908,65.459,336.908,81.78z"/>
<path d="M470.914,95.696l24.054-54.291h15.461l-39.515,86.076l-39.689-86.076h15.637L470.914,95.696z"/>
<path d="M557.159,122.154h-13.745V41.405h13.745V122.154z"/>
<path d="M635.674,60.133c-1.891-4.296-6.015-8.248-10.997-8.248c-4.81,0-9.965,3.78-9.965,8.935c0,7.388,9.279,10.138,18.728,14.088
	c9.449,3.952,18.728,9.622,18.728,23.194c0,15.29-12.369,26.287-27.317,26.287c-13.574,0-24.226-7.731-28.521-20.445l12.199-5.154
	c3.437,7.559,7.388,12.886,16.493,12.886c7.387,0,13.059-4.982,13.059-12.371c0-18.038-36.423-11.854-36.423-37.282
	c0-13.572,10.994-22.851,24.053-22.851c9.276,0,17.868,6.529,21.476,14.947L635.674,60.133z"/>
<path d="M703.189,122.154h-13.745V54.118h-8.419V41.405h8.419V12.37h13.745v29.035h14.432v12.713h-14.432V122.154z"/>
<path d="M820.875,122.154H807.13v-11.167h-0.343c-7.045,8.936-16.496,13.401-27.834,13.401c-23.71,0-38.657-20.103-38.657-42.438
	c0-23.021,14.604-42.78,38.828-42.78c10.997,0,20.962,5.155,27.663,13.745h0.343V41.405h13.745V122.154z M754.385,80.921
	c0,15.807,9.278,30.754,26.457,30.754c17.696,0,26.975-14.26,26.975-30.582c0-16.15-10.136-29.208-27.145-29.208
	C764.692,51.885,754.385,65.802,754.385,80.921z"/>
<path d="M374.736,81.78c0,5.498-4.466,9.792-9.792,9.792c-5.328,0-9.794-4.294-9.794-9.792c0-5.326,4.466-9.794,9.794-9.794
	C370.27,71.986,374.736,76.454,374.736,81.78z"/>
</svg>
